General
Complete name : Jin.Roh.The.Wolf.Brigade.1998.BRRip.H264.AAC.5.1ch.Gopo.mp4
Format : MPEG-4
Format profile : Base Media
Codec ID : isom
File size : 1.55 GiB
Duration : 1h 41mn
Overall bit rate : 2 182 Kbps
Encoded date : UTC 2009-11-14 00:00:10
Tagged date : UTC 2009-11-14 00:00:10
Video #1
ID : 1
Format : AVC
Format/Info : Advanced Video Codec
Format profile : High@L4.1
Format settings, CABAC : Yes
Format settings, ReFrames : 4 frames
Codec ID : avc1
Codec ID/Info : Advanced Video Coding
Duration : 1h 41mn
Bit rate mode : Variable
Bit rate : 1 876 Kbps
Maximum bit rate : 9 075 Kbps
Width : 1 280 pixels
Height : 692 pixels
Display aspect ratio : 1.850
Frame rate mode : Constant
Frame rate : 23.976 fps
Resolution : 24 bits
Colorimetry : 4:2:0
Scan type : Progressive
Bits/(Pixel*Frame) : 0.088
Stream size : 1.34 GiB (86%)
Writing library : x264 core 68 r1183M f21daff
Encoding settings : cabac=1 / ref=4 / deblock=1:-1:-1 / analyse=0x3:0x113 / me=umh / subme=8 / psy_rd=1.0:0.0 / mixed_ref=1 / me_range=16 / chroma_me=1 / trellis=2 / 8x8dct=1 / cqm=0 / deadzone=21,11 / chroma_qp_offset=-2 / threads=1 / nr=0 / decimate=1 / mbaff=0 / bframes=3 / b_pyramid=0 / b_adapt=2 / b_bias=0 / direct=3 / wpredb=1 / keyint=250 / keyint_min=25 / scenecut=40 / rc=2pass / bitrate=1876 / ratetol=1.0 / qcomp=0.60 / qpmin=10 / qpmax=51 / qpstep=4 / cplxblur=20.0 / qblur=0.5 / vbv_maxrate=50000 / vbv_bufsize=50000 / ip_ratio=1.40 / pb_ratio=1.30 / aq=1:1.00
Encoded date : UTC 2009-11-12 14:26:55
Tagged date : UTC 2009-11-14 00:03:59
Audio #2
ID : 2
Format : AAC
Format/Info : Advanced Audio Codec
Format version : Version 4
Format profile : LC
Format settings, SBR : No
Codec ID : 40
Duration : 1h 41mn
Bit rate mode : Variable
Bit rate : 302 Kbps
Maximum bit rate : 406 Kbps
Channel(s) : 6 channels
Channel positions : Front: L C R, Rear: L R, LFE
Sampling rate : 48.0 KHz
Resolution : 16 bits
Stream size : 221 MiB (14%)
Encoded date : UTC 2009-11-14 00:03:29
Tagged date : UTC 2009-11-14 00:03:59
Subtitle: English

PLOT

Ten years after the end of World War II; anti-terror policeman Fuse gets suspended from service after the suicide by self-detonation of a young terrorist girl during an operation, as he failed to shoot her in time. When he tries to gather some information about her, he meets her sister and befriends with her. Both get dragged into the rivalries between the administration of the police and the counter terrorism commando unit 'Jin Roh' (human wolves).

Director: Hiroyuki Okiura
CASTING

Yoshikazu Fujiki ... Kazuki Fuse (as Yoshikatsu Fujiki)
Sumi Mutoh ... Kei Amemiya
Hiroyuki Kinosha ... Atsuhi Henmi (as Hiroyuki Kinoshita)
Yukio Hiroda ... Bunmei Muroto
Yukihiro Yoshida ... Hajime Handa
Sendai Eri ... Nanami Agawa (voice)
Kenji Nakagawa ... Isao Aniya
Tamio Ôki ... CAPO Officer (voice)rest of cast listed alphabetically:
Doug Abrahams ... Narrator, Hachiro Tohbe (voice: English version)
Michael Dobson ... Kazuki Fuse (voice: English version)
Paul Dobson ... Additional Voices (voice: English version)
Brian Drummond ... Additional Voices (voice: English version)
Ron Halder ... Shiro Tatsumi (voice: English version)
Ryuichi Horibe ... Shiroh Tatsumi
David Kaye ... Additional Voices (voice: English version)
Michael Kopsa ... Hajime Handa (voice: English version)
Scott McNeil ... Additional Voices (voice: English version)
Colin Murdock ... Atsushi Henmi (voice: English version)
Maggie Blue O'Hara ... Nanami Agawa (voice: English version)
Yoshisada Sakaguchi ... Hachiroh Tohbe
Moneca Stori ... Kei Amemiya
French Tickner ... Isao Aniya (voice: English version)
Lee Tockar ... Additional Voices (voice: English version)
Dale Wilson ... Bunmei Muroto (voice: English version)

SOURCE: Jin.Roh.The.Wolf.Brigade.2000.720p.BluRay.x264.THORA

Notes: For best performance I suggest you to use KMPlayer(find it with google) for playback